<svg xmlns="http://www.w3.org/2000/svg" version="1.1" xmlns:xlink="http://www.w3.org/1999/xlink" width="512" height="512" x="0" y="0" viewBox="0 0 512 512" style="enable-background:new 0 0 512 512" xml:space="preserve" class=""><g><path d="M508.882 263.234A17.065 17.065 0 0 0 494.927 256h-51.191v-68.267c-.011-9.421-7.645-17.056-17.067-17.067h-17.067V102.4c-.011-9.421-7.646-17.056-17.067-17.067h-25.6v-25.6c-.011-9.421-7.645-17.056-17.067-17.067h-25.6v-25.6C324.258 7.645 316.623.011 307.202 0h-204.8c-9.421.011-17.056 7.645-17.067 17.067v153.6h-76.8a8.073 8.073 0 0 0-1.524.307 8.107 8.107 0 0 0-1.393.209c-.067.025-.109.081-.175.106a8.322 8.322 0 0 0-1.688 1.029 8.53 8.53 0 0 0-1.123.758 8.285 8.285 0 0 0-.97 1.333c-.34.414-.64.859-.896 1.329-.15.444-.264.9-.34 1.362a8.324 8.324 0 0 0-.381 1.888c-.002.074-.043.135-.043.211v324.267c0 .11.059.202.063.313a8.463 8.463 0 0 0 .59 2.923c.044.108.115.198.163.303.204.481.453.943.742 1.378.227.288.473.56.736.815.131.144.243.29.383.424a8.44 8.44 0 0 0 2.333 1.572c.178.081.359.135.544.205a8.422 8.422 0 0 0 2.978.601H415.69a17.108 17.108 0 0 0 16.075-11.333l79.237-221.858a17.064 17.064 0 0 0-2.12-15.575zm-99.28-75.501h17.067V256h-17.067v-68.267zM392.535 102.4V256h-54.234c25.37-20.427 35.095-54.636 24.265-85.355-10.83-30.718-39.859-51.264-72.43-51.264s-61.601 20.546-72.43 51.264c-10.83 30.718-1.105 64.927 24.265 85.355h-54.234V102.4h204.798zm-102.4 119.467a27.932 27.932 0 0 1 18.587 6.633 18.262 18.262 0 0 1 7.013 14.017v7.637a58.98 58.98 0 0 1-51.2 0v-7.637c1.521-12.687 12.879-21.849 25.6-20.65zm-17.066-34.134c0-9.426 7.641-17.067 17.067-17.067s17.067 7.641 17.067 17.067-7.641 17.067-17.067 17.067c-9.422-.011-17.057-7.645-17.067-17.067zm41.362 23.919c13.2-13.37 13.114-34.894-.192-48.159-13.306-13.265-34.83-13.284-48.159-.042s-13.453 34.765-.276 48.158a37.073 37.073 0 0 0-17.876 26.884c-17.102-17.077-22.229-42.777-12.988-65.109 9.241-22.332 31.029-36.895 55.197-36.893s45.955 14.566 55.194 36.899c9.239 22.333 4.11 48.032-12.994 65.108a35.593 35.593 0 0 0-12.518-22.973 41.38 41.38 0 0 0-5.388-3.873zm35.438-151.919v25.6H187.735c-9.421.011-17.056 7.646-17.067 17.067V256h-25.6V59.733h204.801zM102.402 17.067h204.8v25.6H145.069c-9.421.011-17.056 7.645-17.067 17.067V256h-25.6V17.067zM85.335 187.733v69.571l-37.071 6.18-27.545-75.75h64.616zm-68.266 39.909 15.154 41.675a17.064 17.064 0 0 0 18.85 11l29.876-4.979-63.88 178.865V227.642zM415.69 494.933H20.644l79.237-221.867h395.045L415.69 494.933z" fill="#550808" opacity="1" data-original="#000000" class=""></path><path d="M187.735 357.188v18.279c.015 14.132 11.468 25.585 25.6 25.6h119.467c14.132-.015 25.585-11.468 25.6-25.6v-18.279c16.638-4.267 27.496-20.254 25.328-37.293s-16.685-29.798-33.861-29.761c-17.177-.037-31.693 12.722-33.861 29.761s8.69 33.027 25.328 37.293v18.279a8.542 8.542 0 0 1-8.533 8.533H213.335a8.54 8.54 0 0 1-8.533-8.533v-18.279c16.643-4.297 27.494-20.299 25.328-37.35-2.166-17.051-16.673-29.832-33.861-29.832s-31.695 12.781-33.861 29.832c-2.166 17.051 8.685 33.052 25.327 37.35zm145.649-37.426a17.067 17.067 0 1 1 25.018 19.197V332.8a8.533 8.533 0 0 0-17.066 0v6.159a17.065 17.065 0 0 1-7.952-19.197zm-140.137-12.38a17.066 17.066 0 0 1 11.554 31.577V332.8a8.533 8.533 0 0 0-17.066 0v6.159a17.012 17.012 0 0 1-8.533-14.693 17.067 17.067 0 0 1 14.045-16.884z" fill="#550808" opacity="1" data-original="#000000" class=""></path></g></svg>