<svg xmlns="http://www.w3.org/2000/svg" version="1.1" xmlns:xlink="http://www.w3.org/1999/xlink" width="512" height="512" x="0" y="0" viewBox="0 0 500 500" style="enable-background:new 0 0 512 512" xml:space="preserve" class=""><g><path fill-rule="evenodd" d="M448.061 356.782c-1.025 11.021-5.931 19.831-14.559 26.169-16.662 12.307-46.589 14.755-83.957 7.292 32.013-35.23 47.517-78.846 55-126.459 30.089 35.329 45.888 68.782 43.516 92.998zm-198.056 80.793c-30.412-10.117-54.677-23.78-74.089-40.345 24.727-7.049 48.513-16.276 74.089-28.806 24.427 11.993 48.907 21.607 72.417 28.345.539.154 1.079.297 1.618.461-19.358 16.556-43.623 30.228-74.035 40.345zM66.454 382.952c-8.573-6.338-13.48-15.132-14.559-26.144-2.319-24.216 13.427-57.678 43.515-93.023 7.476 47.566 23.107 91.252 55 126.459-37.367 7.462-67.24 5.015-83.956-7.292zm16.339-162.551c-20.329-27.455-31.113-52.508-31.113-72.434 0-13.297 4.961-23.703 14.774-30.936 17.363-12.812 49.123-14.944 88.702-6.302-19.52 7.804-39.633 13.04-59.907 15.446-3.127.375-5.554 3.029-5.608 6.209-.701 31.621-.97 65.652 1.941 99.225a335.094 335.094 0 0 1-8.789-11.208zm82.123 166.542c23.159-5.899 47.425-14.962 70.746-25.828-44.955-23.71-90.163-55.867-126.178-91.156 8.143 45.232 24.373 85.484 55.432 116.984zm85.089-322.479c-42.49 40.107-94.525 66.078-147.692 73.694-.755 38.12-.377 75.36 3.936 110.161 18.28 19.593 40.334 39.015 65.138 57.294 25.236 18.603 51.873 35.005 78.618 48.523 26.691-13.518 53.383-29.92 78.618-48.523 24.804-18.298 46.697-37.556 65.138-57.303 4.26-34.801 4.637-72.04 3.883-110.152-53.167-7.617-105.202-33.588-147.639-73.694zm85.089 322.479c31.059-31.5 47.29-71.752 55.378-116.975-35.94 35.311-81.271 67.44-126.123 91.148 23.478 10.967 47.383 19.877 70.745 25.827zm98.408-269.912c8.574 6.33 13.48 15.107 14.559 26.1 2.265 23.15-12.025 54.813-39.687 88.478 2.912-33.573 2.696-67.605 1.995-99.225-.108-3.18-2.48-5.834-5.662-6.209-20.221-2.406-40.388-7.641-59.853-15.446 39.525-8.634 71.339-6.483 88.648 6.302zm-23.942 132.96c35.912-40.498 54.138-78.745 51.226-108.105-1.402-14.755-8.035-26.586-19.681-35.159-23.079-17.009-63.952-18.603-115.177-4.495-25.613-12.709-49.716-29.906-71.177-50.956-2.769-2.639-6.91-2.632-9.49-.009-21.461 21.068-45.618 38.264-71.177 50.974-51.28-14.108-92.099-12.539-115.231 4.486-13.049 9.647-19.951 23.9-19.951 41.24 0 32.901 24.188 71.296 51.549 102.024-35.966 40.465-54.138 78.678-51.28 108.045 1.402 14.782 8.034 26.628 19.681 35.218 25.861 19.037 68.369 15.612 102.182 7.798 22.971 21.596 51.873 37.948 86.976 49.343a6.444 6.444 0 0 0 3.936 0c35.103-11.395 64.005-27.747 87.03-49.343 45.079 10.422 80.991 7.779 102.128-7.798 11.647-8.596 18.279-20.453 19.735-35.251 2.805-29.37-15.367-67.564-51.279-108.012zm-159.663-94.005c18.927 0 36.02 8.061 48.045 20.905l-54.354 62.156-29.765-29.75a6.344 6.344 0 0 0-9.005 0 6.336 6.336 0 0 0 0 9.049l34.564 34.588c2.588 2.607 6.912 2.485 9.328-.316l57.157-65.361c6.201 10.047 9.814 21.887 9.814 34.552 0 36.294-29.495 65.815-65.785 65.815-36.289 0-65.839-29.521-65.839-65.815.001-36.292 29.551-65.823 65.84-65.823zm0 144.433c-43.353 0-78.618-35.262-78.618-78.61 0-43.356 35.265-78.616 78.618-78.616 22.162 0 42.167 9.219 56.51 24.027l20.113-23.012c2.319-2.663 6.363-2.935 9.005-.607 2.642 2.329 2.966 6.372.593 9.023l-21.515 24.636a78.218 78.218 0 0 1 13.858 44.549c0 43.348-35.211 78.61-78.564 78.61z" clip-rule="evenodd" fill="#550808" opacity="1" data-original="#000000" class=""></path></g></svg>