<svg xmlns="http://www.w3.org/2000/svg" version="1.1" xmlns:xlink="http://www.w3.org/1999/xlink" width="512" height="512" x="0" y="0" viewBox="0 0 64 64" style="enable-background:new 0 0 512 512" xml:space="preserve" class=""><g><path d="M62 17h-3.587l4.293-4.293A.994.994 0 0 0 63 12V2a1 1 0 0 0-1-1H52a.997.997 0 0 0-.707.293L38.586 14H37a1 1 0 0 0-.691.277l-23 22 .003.003A.991.991 0 0 0 13 37v2.585L1.294 51.292A.994.994 0 0 0 1 52v10a1 1 0 0 0 1 1h10a.994.994 0 0 0 .708-.294L16 59.414v2.587a1 1 0 0 0 1 1h10a.994.994 0 0 0 .708-.294l34.999-35.001A.995.995 0 0 0 63 27v-9a.997.997 0 0 0-1-1zM26.595 51.001h-7.08L22.692 48H24a.99.99 0 0 0 .687-.279l.003.003 22-21c.198-.189.31-.451.31-.724v-.957L53.397 19h6.138zM15 46v-8h8v8zm30-28.586v8.158L25 44.663v-7.249zM55.586 17H53c-.255 0-.501.098-.687.273L47 22.292v-3.878l14-14v7.172zM52.414 3h7.172L47 15.586V15a1 1 0 0 0-1-1h-4.586zM37.401 16h6.185l-20 20h-7.094zM14 48h.586l-3 3H4.414L13 42.414V47a1 1 0 0 0 1 1zm-3 13H3v-8h8zm2-1.414v-7.172L17.415 48h2.366l-3.467 3.274.003.003a.994.994 0 0 0-.317.724v4.585zm13 1.415h-8v-8h8zm2-1.414v-7.164l33-32.058v6.22z" fill="#ffffff" opacity="1" data-original="#000000" class=""></path></g></svg>