<svg xmlns="http://www.w3.org/2000/svg" version="1.1" xmlns:xlink="http://www.w3.org/1999/xlink" width="512" height="512" x="0" y="0" viewBox="0 0 64 64" style="enable-background:new 0 0 512 512" xml:space="preserve" class=""><g><path d="m59.748 11.666.509-.509A5.91 5.91 0 0 0 62 6.95 5.957 5.957 0 0 0 56.05 1a5.91 5.91 0 0 0-4.207 1.743l-.887.887C49.86 2.021 48.03 1 46.024 1a5.948 5.948 0 0 0-4.172 1.697L3.302 40.284A5.99 5.99 0 0 0 1 45c0 3.309 2.691 6 6 6a5.987 5.987 0 0 0 4.713-2.299l3.957-3.957a6.034 6.034 0 0 0 2.586 2.586l-4.957 4.957A5.987 5.987 0 0 0 11 57c0 3.309 2.691 6 6 6a5.987 5.987 0 0 0 4.713-2.299l39.544-39.544A5.91 5.91 0 0 0 63 16.95a5.925 5.925 0 0 0-3.252-5.284zM23 47.65a6.016 6.016 0 0 0 2.713-1.949L27 44.414v8.172l-4 4zM48 9.414v11.172l-4 4V13.414zm-6 17.172-4 4V19.414l4-4zm-10 10V25.414l4-4v11.172zm2-16v-7.439l4-3.9v7.339zm-2 2-4 4v-7.589l4-3.9zm-6 6-4 4v-7.739l4-3.9zm-2 4.828v3.398a5.947 5.947 0 0 0-2.606-.792zm2 5.276v-7.276l4-4v11.172l-3.02 3.02A5.963 5.963 0 0 0 26 38.69zm3 3.724 4-4v8.172l-4 4zm6-6 4-4v8.172l-4 4zm6-6 4-4v8.172l-4 4zm6-6 4-4v8.172l-4 4zm6-6 4-4v8.172l-4 4zM60 6.95a3.924 3.924 0 0 1-1.157 2.793L56 12.586V3.005c.017 0 .033-.005.05-.005A3.955 3.955 0 0 1 60 6.95zm-6.743-2.793c.225-.225.478-.408.743-.57v11l-4 4V7.414zm-3.742.914L46 8.586V3.002L46.024 3a3.99 3.99 0 0 1 3.491 2.071zm-6.266-.942A4.03 4.03 0 0 1 44 3.567v7.019l-4 4V7.297zM7 49c-2.206 0-4-1.794-4-4s1.794-4 4-4 4 1.794 4 4-1.794 4-4 4zm5.98-4.394a6.002 6.002 0 0 0-5.52-5.583L14 32.647V36h2v-5.303l4-3.9v7.789l-2.701 2.701a5.987 5.987 0 0 0-2.271 5.271zM17 42c0-2.206 1.794-4 4-4s4 1.794 4 4-1.794 4-4 4-4-1.794-4-4zm4 6v4.54a5.97 5.97 0 0 0-3.606-1.521l3.048-3.048c.184.018.37.029.558.029zm-4 13c-2.206 0-4-1.794-4-4s1.794-4 4-4 4 1.794 4 4-1.794 4-4 4zm42.843-41.257-.843.843v-7.07c1.207.685 2 1.976 2 3.433a3.925 3.925 0 0 1-1.157 2.794z" fill="#ffffff" opacity="1" data-original="#000000" class=""></path></g></svg>