<svg xmlns="http://www.w3.org/2000/svg" version="1.1" xmlns:xlink="http://www.w3.org/1999/xlink" width="512" height="512" x="0" y="0" viewBox="0 0 128 128" style="enable-background:new 0 0 512 512" xml:space="preserve" class=""><g><path d="M37.448 10.75A7.759 7.759 0 0 0 29.7 18.5a1.75 1.75 0 0 0 3.5 0 4.254 4.254 0 0 1 4.25-4.25h11.389a1.75 1.75 0 0 0 0-3.5ZM59.323 10.75h-3.1a1.75 1.75 0 0 0 0 3.5h3.1a1.75 1.75 0 1 0 0-3.5ZM49.714 8.25h9.609a1.75 1.75 0 1 0 0-3.5h-9.609a1.75 1.75 0 0 0 0 3.5Z" fill="#ffffff" opacity="1" data-original="#000000"></path><path d="M25.448 20.25A1.749 1.749 0 0 0 27.2 18.5 10.261 10.261 0 0 1 37.448 8.25h4.62a1.75 1.75 0 0 0 0-3.5h-4.62A13.765 13.765 0 0 0 23.7 18.5a1.749 1.749 0 0 0 1.748 1.75ZM82.973 10.75a7.759 7.759 0 0 0-7.75 7.75 1.75 1.75 0 0 0 3.5 0 4.254 4.254 0 0 1 4.25-4.25h5.277a1.75 1.75 0 0 0 0-3.5ZM93.875 12.5a1.749 1.749 0 0 0 1.75 1.75h9.223a1.75 1.75 0 0 0 0-3.5h-9.223a1.749 1.749 0 0 0-1.75 1.75ZM102.437 8.25h2.411a1.75 1.75 0 0 0 0-3.5h-2.411a1.75 1.75 0 0 0 0 3.5Z" fill="#ffffff" opacity="1" data-original="#000000"></path><path d="M70.973 20.25a1.75 1.75 0 0 0 1.75-1.75 10.261 10.261 0 0 1 10.25-10.25h9.839a1.75 1.75 0 0 0 0-3.5h-9.839a13.765 13.765 0 0 0-13.75 13.75 1.749 1.749 0 0 0 1.75 1.75ZM109.5 62.735a1.75 1.75 0 0 0-1.75 1.75v6a1.75 1.75 0 1 0 3.5 0v-6a1.75 1.75 0 0 0-1.75-1.75Z" fill="#ffffff" opacity="1" data-original="#000000"></path><path d="M121.5 113.75h-4.25v-62.1l4.459-.536a1.75 1.75 0 0 0-.418-3.474l-35.643 4.282-.96-20.136a1.747 1.747 0 0 0 1.035-1.594v-6a1.751 1.751 0 0 0-1.75-1.75h-20a1.75 1.75 0 0 0-1.75 1.75v6a1.747 1.747 0 0 0 1.039 1.6l-1.09 22.956-21.793 2.616-1.212-25.58a1.746 1.746 0 0 0 1.033-1.592v-6a1.75 1.75 0 0 0-1.75-1.75h-20a1.75 1.75 0 0 0-1.75 1.75v6a1.748 1.748 0 0 0 1.044 1.6L14.551 98.75H13.22a1.75 1.75 0 0 0-1.748 1.666l-.64 13.334H6.5a1.749 1.749 0 0 0-1.75 1.75v6a1.749 1.749 0 0 0 1.75 1.75h115a1.749 1.749 0 0 0 1.75-1.75v-6a1.749 1.749 0 0 0-1.75-1.75Zm-17.569 0V95.5a1.75 1.75 0 0 0-1.75-1.75h-12a1.749 1.749 0 0 0-1.75 1.75v18.25h-2.7V95.5a1.75 1.75 0 0 0-1.75-1.75h-12a1.749 1.749 0 0 0-1.75 1.75v18.25H30.2V62.113l83.55-10.041v61.678Zm-3.5 0h-8.5v-16.5h8.5Zm-18.2 0h-8.5v-16.5h8.5Zm-16.5-87.808h16.5v2.5h-16.5Zm1.036 6h14.425l.972 20.4L65.7 54.321Zm-46.561-6H36.7v2.5H20.2Zm1.041 6h14.424l1.223 25.84-14.655 1.763a1.75 1.75 0 0 0 .207 3.487 1.879 1.879 0 0 0 .211-.012l4.043-.487V98.75h-8.645Zm-6.359 70.308H26.7v11.5H14.336Zm104.862 17.5H8.25v-2.5h111.5Z" fill="#ffffff" opacity="1" data-original="#000000"></path><path d="M60.448 87.917h-20a1.75 1.75 0 0 0 0 3.5h20a1.75 1.75 0 1 0 0-3.5ZM60.448 75.917h-20a1.75 1.75 0 0 0 0 3.5h20a1.75 1.75 0 1 0 0-3.5ZM60.448 81.917h-20a1.75 1.75 0 0 0 0 3.5h20a1.75 1.75 0 1 0 0-3.5ZM80.978 78.917h-6a1.749 1.749 0 0 0-1.75 1.75v6a1.749 1.749 0 0 0 1.75 1.75h6a1.75 1.75 0 0 0 1.75-1.75v-6a1.75 1.75 0 0 0-1.75-1.75Zm-1.75 6h-2.5v-2.5h2.5ZM99.181 78.917h-6a1.749 1.749 0 0 0-1.75 1.75v6a1.749 1.749 0 0 0 1.75 1.75h6a1.75 1.75 0 0 0 1.75-1.75v-6a1.75 1.75 0 0 0-1.75-1.75Zm-1.75 6h-2.5v-2.5h2.5Z" fill="#ffffff" opacity="1" data-original="#000000"></path></g></svg>