<svg xmlns="http://www.w3.org/2000/svg" version="1.1" xmlns:xlink="http://www.w3.org/1999/xlink" width="512" height="512" x="0" y="0" viewBox="0 0 512 512" style="enable-background:new 0 0 512 512" xml:space="preserve" class=""><g><path d="M152.332 442.533H54.305V205.995c-.307-9.916-14.697-9.909-15 0v244.038c0 4.143 3.357 7.5 7.5 7.5H82.44V504.5c0 4.143 3.357 7.5 7.5 7.5h30c4.143 0 7.5-3.357 7.5-7.5v-46.967h24.892c9.916-.306 9.909-14.696 0-15zM112.44 497h-15v-39.467h15z" fill="#ffffff" opacity="1" data-original="#000000" class=""></path><path d="M89.61 415.289c0 4.143 3.357 7.5 7.5 7.5h255.66c4.143 0 7.5-3.357 7.5-7.5v-188.88a7.5 7.5 0 0 0-3.894-6.576c-79.916-44.565-182.956-44.565-262.873 0a7.501 7.501 0 0 0-3.894 6.576v188.88zm118.063-24.766c0-10.992 10.317-21.075 17.232-26.246 6.067 4.544 17.301 14.54 17.301 26.246 0 9.521-7.746 17.266-17.267 17.266s-17.266-7.745-17.266-17.266zm47.027 12.468c11.932-27.35-20.279-51.506-25.945-54.241a7.499 7.499 0 0 0-7.631 0c-5.85 2.837-37.848 27.011-25.945 54.241-16.569-6.399-25.633-19.007-25.633-36.658.305-17.017 8.091-25.893 9.914-43.647.889.635 1.77 1.312 2.608 2.025a7.496 7.496 0 0 0 6.358 1.632 7.496 7.496 0 0 0 5.207-3.996c9.74-19.498 24.083-33.83 31.312-40.298 7.221 6.444 21.516 20.719 31.297 40.298a7.493 7.493 0 0 0 5.207 3.996 7.483 7.483 0 0 0 6.357-1.632 39.811 39.811 0 0 1 2.609-2.026c1.117 9.213 3.434 16.104 5.55 22.396 9.275 22.98 4.282 48.602-21.265 57.91zM224.94 201.27c41.955 0 83.462 10.232 120.33 29.624v18.177a272.423 272.423 0 0 0-43.069-16.745 7.499 7.499 0 0 0-9.31 5.083 7.5 7.5 0 0 0 5.083 9.31 257.45 257.45 0 0 1 47.296 19.175V407.79h-68.923c.473-.382.94-.771 1.398-1.167 19.399-16.108 21.27-44.418 12.441-66.321-2.731-8.122-5.556-16.521-5.439-30.055a7.5 7.5 0 0 0-10.474-6.95c-.242.105-4.122 1.795-8.773 4.667-14.958-25.568-35.104-40.99-36.034-41.694a7.502 7.502 0 0 0-9.051 0c-.93.704-21.076 16.125-36.034 41.694-4.651-2.872-8.531-4.562-8.774-4.667a7.504 7.504 0 0 0-10.473 6.95c.116 13.533-2.708 21.933-5.438 30.055-9.114 22.639-6.746 51.525 13.838 67.488H104.61V265.894c48.834-25.815 106.569-35.223 161.292-26.401a7.488 7.488 0 0 0 8.585-6.229 7.5 7.5 0 0 0-6.229-8.585c-55.3-8.904-113.557-.24-163.647 24.397v-18.181c36.868-19.393 78.375-29.625 120.329-29.625zM97.11 147.75h110.443c4.143 0 7.5-3.357 7.5-7.5v-30c0-4.143-3.357-7.5-7.5-7.5H97.11a7.499 7.499 0 0 0-7.5 7.5v30c0 4.143 3.357 7.5 7.5 7.5zm7.5-30h95.443v15H104.61zM360.27 125.25c0-12.406-10.094-22.5-22.5-22.5-29.808 1.132-29.8 43.873 0 45 12.406 0 22.5-10.094 22.5-22.5zm-30 0c.315-9.912 14.687-9.909 15 0-.315 9.912-14.687 9.909-15 0z" fill="#ffffff" opacity="1" data-original="#000000" class=""></path><path d="M465.195 51.881h-54.62V29.378C410.575 13.179 397.396 0 381.198 0h-80.862c-9.916.307-9.909 14.697 0 15h27.104v36.881h-205V15h142.852c9.916-.307 9.909-14.697 0-15H68.682C52.484 0 39.305 13.179 39.305 29.378v141.43c.307 9.916 14.697 9.909 15 0V29.378C54.305 21.45 60.754 15 68.682 15h38.758v44.381c0 4.143 3.357 7.5 7.5 7.5h220c4.143 0 7.5-3.357 7.5-7.5V15h38.758c7.928 0 14.377 6.45 14.377 14.378v413.155H187.326c-9.916.307-9.909 14.697 0 15H322.44V504.5c0 4.143 3.357 7.5 7.5 7.5h30c4.143 0 7.5-3.357 7.5-7.5v-46.967h35.635c4.143 0 7.5-3.357 7.5-7.5V253.924h1.329c17.473 0 31.688-14.215 31.688-31.687V201.27h21.604c4.143 0 7.5-3.357 7.5-7.5V59.381a7.501 7.501 0 0 0-7.501-7.5zM352.44 497h-15v-39.467h15zM457.695 66.881v53.426h-47.12V66.881zm-29.104 155.356c0 9.201-7.486 16.687-16.688 16.687h-1.329V201.27h18.017zm-18.016-35.967v-50.963h47.12v50.963z" fill="#ffffff" opacity="1" data-original="#000000" class=""></path><path d="M248.007 117.744c-9.894.306-9.892 14.696 0 15 9.895-.306 9.892-14.695 0-15zM282.828 117.744c-9.894.306-9.892 14.696 0 15 9.894-.306 9.892-14.695 0-15z" fill="#ffffff" opacity="1" data-original="#000000" class=""></path></g></svg>