<svg xmlns="http://www.w3.org/2000/svg" version="1.1" xmlns:xlink="http://www.w3.org/1999/xlink" width="512" height="512" x="0" y="0" viewBox="0 0 512 512" style="enable-background:new 0 0 512 512" xml:space="preserve" class=""><g><path fill-rule="evenodd" d="m466.447 218.576-14.945-71.998c-.73-3.52-4-5.915-7.583-5.539l-60.172 6.304a36.48 36.48 0 0 0-1.33-1.403c-6.866-6.866-15.994-10.647-25.704-10.647-.671 0-1.338.022-2.003.058l-66.584-80.664c-1.409-11.485-6.555-22.111-14.867-30.423-20.332-20.334-53.42-20.334-73.752 0-9.851 9.85-15.275 22.946-15.275 36.876 0 2.076.135 4.13.373 6.16l-83.59 68.999c-14.019.643-27.849 6.303-38.53 16.984-11.013 11.012-17.077 25.652-17.077 41.225s6.064 30.214 17.077 41.226c8.294 8.295 18.649 13.779 29.91 15.982l56.912 124.661a16.603 16.603 0 0 0-2.558 2.094l-20.467 20.467c-6.436 6.436-6.436 16.909 0 23.344 8.705 8.705 8.498 19.793 5.402 27.268-3.096 7.474-10.79 15.46-23.101 15.46-9.102 0-16.507 7.405-16.507 16.506v14.472a7 7 0 0 0 7 7h75.188a7 7 0 0 0 7-7c0-34.482 28.054-62.536 62.536-62.536s62.535 28.054 62.535 62.536a7 7 0 0 0 7 7h75.188a7 7 0 0 0 7-7v-14.472c0-9.102-7.405-16.506-16.507-16.506-12.311 0-20.004-7.986-23.101-15.46-3.096-7.475-3.302-18.563 5.403-27.269 6.434-6.436 6.434-16.907-.001-23.344l-20.467-20.466a16.394 16.394 0 0 0-11.672-4.834 16.404 16.404 0 0 0-11.674 4.834c-8.704 8.706-19.792 8.499-27.267 5.402-7.475-3.096-15.461-10.79-15.461-23.101 0-9.102-7.404-16.506-16.506-16.506h-11.464L156.98 218.16a58.47 58.47 0 0 0 4.97-24.913l66.521-80.587c2.621.399 5.266.607 7.911.607 4.565 0 9.127-.609 13.565-1.797l70.472 58.171a37.023 37.023 0 0 0-.058 2.003c0 9.71 3.781 18.838 10.646 25.704.458.458.927.899 1.404 1.329l-6.304 60.172a7 7 0 0 0 5.539 7.583l71.998 14.946a7 7 0 0 0 6.372-1.904l8.172-8.172a6.998 6.998 0 0 0-1.953-11.276l-47.014-22.269 8.026-36.117a36.731 36.731 0 0 0 5.169-4.293 36.353 36.353 0 0 0 4.28-5.166l36.129-8.028 22.269 47.013a7 7 0 0 0 11.275 1.953l8.172-8.171a6.992 6.992 0 0 0 1.906-6.372zM59.406 194.508c0-11.833 4.608-22.958 12.976-31.326 8.638-8.638 19.98-12.955 31.326-12.955 11.343 0 22.69 4.319 31.326 12.955 17.272 17.273 17.272 45.379 0 62.652-17.273 17.273-45.379 17.273-62.652 0-8.367-8.368-12.976-19.493-12.976-31.326zm201.371 166.263c0 16.069 9.235 29.877 24.104 36.035 14.865 6.158 31.16 2.927 42.523-8.437.639-.639 1.386-.734 1.774-.734s1.134.095 1.772.733l20.466 20.466a2.51 2.51 0 0 1 .002 3.547c-11.363 11.362-14.597 27.657-8.438 42.525 6.158 14.867 19.966 24.103 36.034 24.103a2.51 2.51 0 0 1 2.507 2.506v7.472h-61.505c-3.546-38.934-36.376-69.536-76.218-69.536-39.843 0-72.673 30.602-76.219 69.536h-61.505v-7.472a2.51 2.51 0 0 1 2.507-2.506c16.068 0 29.877-9.235 36.035-24.103s2.926-31.163-8.437-42.525a2.51 2.51 0 0 1 0-3.546l20.467-20.467c.638-.638 1.384-.733 1.772-.733s1.135.095 1.772.733c11.362 11.362 27.655 14.595 42.524 8.437 14.868-6.158 24.104-19.966 24.104-36.035a2.509 2.509 0 0 1 2.506-2.506h28.944a2.51 2.51 0 0 1 2.509 2.507zm-31.158-16.506h-.292c-9.102 0-16.506 7.405-16.506 16.506 0 12.311-7.986 20.005-15.461 23.101-7.475 3.097-18.564 3.302-27.267-5.402a16.428 16.428 0 0 0-6.222-3.897l-55.674-121.951c13.88-1.051 26.79-6.943 36.736-16.889a58.687 58.687 0 0 0 4.117-4.579zm-70.911-169.081a57.951 57.951 0 0 0-13.775-21.901 57.94 57.94 0 0 0-24.72-14.679l68.416-56.473a52.113 52.113 0 0 0 10.878 15.885 51.917 51.917 0 0 0 14.471 10.21zm50.697-87.068c-7.205-7.206-11.174-16.787-11.174-26.977 0-10.191 3.969-19.771 11.174-26.977 7.438-7.438 17.208-11.157 26.978-11.157s19.54 3.719 26.978 11.157c7.205 7.206 11.174 16.786 11.174 26.977 0 10.19-3.969 19.771-11.174 26.977-14.877 14.875-39.08 14.875-53.956 0zm54.906 17.055a52.067 52.067 0 0 0 8.948-7.156c6.508-6.508 11.07-14.437 13.426-23.083l53.215 64.469c-3.236 1.693-6.234 3.881-8.891 6.538s-4.845 5.655-6.538 8.891zm93.871 142.847 36.169 17.132-53.659-11.139 5-47.718a36.436 36.436 0 0 0 11.021 1.701c1.639 0 3.258-.117 4.856-.329l-7.224 32.508a7 7 0 0 0 3.837 7.845zm14.337-60.57a22.208 22.208 0 0 1-15.806 6.547c-5.97 0-11.583-2.325-15.805-6.547s-6.547-9.834-6.547-15.805 2.325-11.583 6.547-15.805h.001a22.201 22.201 0 0 1 15.804-6.547 22.204 22.204 0 0 1 15.805 6.547c8.714 8.715 8.714 22.895.001 31.61zm60.569-14.336a6.995 6.995 0 0 0-7.845-3.836l-32.527 7.228a36.593 36.593 0 0 0-1.378-15.88l47.743-5.002 11.139 53.658zM243.799 451.191c-24.7 0-44.796 20.096-44.796 44.797a7 7 0 0 0 7 7h75.593a7 7 0 0 0 7-7c0-24.701-20.096-44.797-44.797-44.797zm-29.993 37.797c3.177-13.621 15.419-23.797 29.993-23.797 14.575 0 26.817 10.176 29.994 23.797zM256.2 41.321c-5.294-5.293-12.332-8.208-19.817-8.208-7.486 0-14.524 2.915-19.817 8.208-5.294 5.294-8.21 12.332-8.21 19.818s2.916 14.524 8.209 19.818c5.294 5.293 12.332 8.208 19.818 8.208 7.485 0 14.523-2.915 19.817-8.208s8.21-12.332 8.21-19.818-2.916-14.524-8.21-19.818zm-9.898 29.737a13.938 13.938 0 0 1-9.919 4.108c-3.747 0-7.27-1.459-9.919-4.108s-4.108-6.172-4.108-9.918 1.459-7.27 4.108-9.919h.001a13.932 13.932 0 0 1 9.918-4.108c3.746 0 7.27 1.459 9.919 4.108s4.108 6.172 4.108 9.919-1.459 7.268-4.108 9.918zM125.551 216.352c12.045-12.044 12.045-31.642 0-43.687-12.043-12.044-31.643-12.044-43.686 0-12.045 12.044-12.045 31.642 0 43.687 6.021 6.022 13.933 9.033 21.843 9.033s15.821-3.011 21.843-9.033zm-38.735-21.844c0-4.512 1.758-8.753 4.947-11.944 3.19-3.19 7.433-4.947 11.944-4.947s8.754 1.757 11.944 4.947c3.189 3.19 4.947 7.432 4.947 11.944s-1.758 8.753-4.947 11.944c-3.19 3.19-7.433 4.947-11.944 4.947s-8.754-1.757-11.944-4.947a16.785 16.785 0 0 1-4.947-11.944zm274.847-27.815a7 7 0 1 1-9.902 9.899 7 7 0 0 1 9.902-9.899z" clip-rule="evenodd" fill="#ffffff" opacity="1" data-original="#000000" class=""></path></g></svg>